<svg width="20" height="20" viewBox="0 0 20 20" xmlns="http://www.w3.org/2000/svg">
<path d="M18.018 2.2259H14.168V0.999902C14.168 0.840772 14.1048 0.68816 13.9923 0.575638C13.8797 0.463116 13.7271 0.399902 13.568 0.399902C13.4089 0.399902 13.2563 0.463116 13.1437 0.575638C13.0312 0.68816 12.968 0.840772 12.968 0.999902V2.2259H6.936V0.999902C6.936 0.840772 6.87279 0.68816 6.76026 0.575638C6.64774 0.463116 6.49513 0.399902 6.336 0.399902C6.17687 0.399902 6.02426 0.463116 5.91174 0.575638C5.79921 0.68816 5.736 0.840772 5.736 0.999902V2.2259H1.982C1.58911 2.22643 1.21247 2.38274 0.934652 2.66055C0.656838 2.93837 0.500529 3.31501 0.5 3.7079V18.1179C0.501056 18.5106 0.657534 18.887 0.935234 19.1647C1.21293 19.4424 1.58927 19.5988 1.982 19.5999H18.018C18.4107 19.5988 18.7871 19.4424 19.0648 19.1647C19.3425 18.887 19.4989 18.5106 19.5 18.1179V3.7079C19.4995 3.31501 19.3432 2.93837 19.0653 2.66055C18.7875 2.38274 18.4109 2.22643 18.018 2.2259ZM1.982 3.4259H5.736V5.1159C5.736 5.27503 5.79921 5.42764 5.91174 5.54017C6.02426 5.65269 6.17687 5.7159 6.336 5.7159C6.49513 5.7159 6.64774 5.65269 6.76026 5.54017C6.87279 5.42764 6.936 5.27503 6.936 5.1159V3.4259H12.968V5.1159C12.968 5.27503 13.0312 5.42764 13.1437 5.54017C13.2563 5.65269 13.4089 5.7159 13.568 5.7159C13.7271 5.7159 13.8797 5.65269 13.9923 5.54017C14.1048 5.42764 14.168 5.27503 14.168 5.1159V3.4259H18.018C18.0928 3.4259 18.1645 3.45561 18.2174 3.5085C18.2703 3.56138 18.3 3.63311 18.3 3.7079V7.2839H1.7V3.7079C1.7 3.63311 1.72971 3.56138 1.7826 3.5085C1.83548 3.45561 1.90721 3.4259 1.982 3.4259ZM18.018 18.3999H1.982C1.90721 18.3999 1.83548 18.3702 1.7826 18.3173C1.72971 18.2644 1.7 18.1927 1.7 18.1179V8.4839H18.3V18.1179C18.3 18.1927 18.2703 18.2644 18.2174 18.3173C18.1645 18.3702 18.0928 18.3999 18.018 18.3999Z" fill="#C8C8D4"/>
</svg>
