<svg width="129" height="122" fill="none" xmlns="http://www.w3.org/2000/svg"><path d="M101.136 32.067c-2.859 0-5.615.674-8.207 1.923-4.463-4.34-9.699-6.84-15.299-6.84-4.708 0-9.156 1.775-13.107 4.917-3.951-3.142-8.399-4.917-13.107-4.917-5.6 0-10.836 2.5-15.299 6.84-2.592-1.25-5.349-1.923-8.207-1.923C12.712 32.067.392 51.092.392 74.56c0 23.468 12.32 42.493 27.518 42.493 2.859 0 5.615-.674 8.207-1.923 4.463 4.34 9.699 6.84 15.299 6.84 4.708 0 9.156-1.775 13.107-4.917 3.951 3.142 8.399 4.917 13.107 4.917 5.6 0 10.836-2.5 15.299-6.84 2.592 1.249 5.349 1.923 8.207 1.923 15.198 0 27.518-19.025 27.518-42.493 0-23.468-12.32-42.493-27.518-42.493z" fill="#FF801C"/><g opacity=".54" fill="#CC5D11"><path d="M106.297 86.463s-.297 1.539-.547 3.738c.205-.752.393-1.518.547-2.315 3.19-16.495 0-1.423 0-1.423z"/><path d="M126.226 92.005c-4.951 9.542-10.686 13.475-15.915 13.475-5.509 0-5.188-9.741-4.561-15.28-4.036 14.817-17.542 20.975-25.129 19.449-7.972-1.603-6.096-23.188-6.096-23.188s-7.022 21.897-23.023 23.141c-16.001 1.244-24.339-23.141-24.339-23.141s4.212 17.508-7.572 17.643C8.677 104.229 1.515 74.898.517 70.566a66.51 66.51 0 0 0-.125 3.992c0 23.468 12.32 42.493 27.518 42.493 2.859 0 5.615-.674 8.207-1.923 4.463 4.34 9.699 6.84 15.299 6.84 4.708 0 9.156-1.775 13.107-4.917 3.951 3.142 8.399 4.917 13.107 4.917 5.6 0 10.836-2.5 15.299-6.84 2.592 1.249 5.349 1.923 8.207 1.923 11.17.002 20.778-10.281 25.09-25.046z"/></g><path opacity=".54" d="m106.297 35.219 6.64.949c-3.577-2.626-7.452-3.036-11.676-3.036-2.859 0-5.759 1.24-8.351 2.49-4.463-4.34-9.835-6.772-15.435-6.772-4.708 0-8.859 1.239-12.81 4.382-3.951-3.142-8.455-5.079-13.163-5.079-5.6 0-10.678 2.332-15.141 6.672-2.592-1.249-4.425-2.29-7.284-2.29-1.629 0-3.071.583-4.622 1.002l2.707 1.682c11.525 1.619 8.954 11.413 8.954 11.413s17.025-12.154 30.771 1.998c0 0 15.054-14.29 29.463-.818 0 0-2-11.527 9.947-12.593z" fill="#CC5D11"/><g opacity=".54" fill="#CC5D11"><path d="M66.876 74.56s-.102 2.06-.084 5.25c.142-3.151.084-5.25.084-5.25zM96.351 74.657l.004-.097-.004.097z"/></g><path d="M36.117 111.532c-3.776-3.848-6.292-8.84-7.904-14.012-1.62-5.204-2.148-10.704-1.95-16.135l.343-4.065c.145-1.35.444-2.678.676-4.014.252-1.333.48-2.671.903-3.96.369-1.303.755-2.6 1.147-3.892l.294-.97.375-.94.757-1.878 1.541-3.734c1.237-2.394 2.5-4.768 3.818-7.096-.922 2.529-1.937 4.995-2.91 7.47l-1.215 3.8-.621 1.89-.314.942-.232.966c-.555 2.59-1.395 5.109-1.68 7.738-.182 1.304-.48 2.594-.598 3.903l-.287 3.933c-.227 5.243.19 10.516 1.451 15.623 1.291 5.086 3.286 10.068 6.406 14.431zM64.666 111.532c1.77-1.92 3.174-4.111 4.336-6.398 1.222-2.261 2.045-4.703 2.796-7.136 1.392-4.919 1.825-10.064 1.638-15.165-.042-5.129-1.093-10.191-2.123-15.24l-2.07-7.482c-.838-2.453-1.684-4.911-2.452-7.417 1.174 2.327 2.271 4.703 3.376 7.083a188.27 188.27 0 0 1 2.654 7.411c.333 1.272.659 2.547.968 3.828.309 1.281.67 2.552.824 3.867l.566 3.924c.183 1.309.167 2.642.256 3.963.155 5.283-.39 10.664-2.152 15.695-.91 2.496-1.972 4.944-3.433 7.159-1.434 2.211-3.107 4.306-5.184 5.908zM95.406 111.532c3.242-4.335 5.598-9.207 7.284-14.244 1.646-5.053 2.554-10.33 2.593-15.624.067-5.294-.663-10.598-2.045-15.748-1.37-5.16-3.337-10.174-5.636-15.08a58.72 58.72 0 0 1 7.133 14.639c1.728 5.196 2.583 10.704 2.547 16.214-.079 5.51-1.12 11.013-3.129 16.127-2.013 5.091-4.863 9.909-8.747 13.716zM96.351 47.812c-.401-1.487-.471-3.074-.234-4.629.231-1.555.833-3.089 1.807-4.374.985-1.261 2.297-2.315 3.799-2.834.711-.362 1.514-.429 2.263-.625.773-.086 1.55-.118 2.313-.131-.74.239-1.487.365-2.199.608l-1.049.399c-.172.07-.351.121-.519.196l-.486.264c-1.336.621-2.454 1.594-3.325 2.728-.883 1.135-1.471 2.495-1.841 3.924a18.201 18.201 0 0 0-.529 4.474zM36.117 46.631c2.224-1.733 4.784-3.024 7.463-3.966 2.682-.935 5.542-1.455 8.415-1.373 1.433.054 2.867.224 4.263.567 1.386.372 2.752.835 4.023 1.497 2.551 1.299 4.792 3.126 6.607 5.274-1.08-.904-2.134-1.822-3.315-2.564-1.132-.807-2.367-1.447-3.619-2.014-2.53-1.086-5.24-1.709-7.985-1.76-2.745-.103-5.492.366-8.157 1.104a31.81 31.81 0 0 0-3.926 1.393 32.164 32.164 0 0 0-3.769 1.842z" fill="#703C1E"/><path opacity=".54" d="m92.911 35.62.086-.04c-.444-.353-.503-.364-.086.04z" fill="#CC5D11"/><path d="M66.603 41.141c.105-2.486.199-4.994-.213-7.428-.404-2.414-1.416-4.773-3.142-6.447a7.598 7.598 0 0 0-3.003-1.843c-1.13-.372-2.337-.512-3.547-.525-2.418-.002-4.842.496-7.041 1.487a16.9 16.9 0 0 0-5.784 4.188c-.76.916-1.446 1.893-1.954 2.963-.481 1.074-.882 2.199-1.042 3.363-.357 2.296.114 4.786 1.721 6.336.79.767 1.806 1.319 2.857 1.419 1.039.129 2.082-.251 2.862-.958.788-.692 1.233-1.692 1.084-2.674-.134-1.004-.784-1.978-1.589-2.8-.82-.843-1.723-1.495-2.712-1.461-1.001.003-2.045.549-2.748 1.356-.732.822-1.194 1.907-1.51 3.047-.313 1.152-.519 2.345-.547 3.525-.081 2.348.662 4.734 2.407 6.256.837.73 1.958 1.285 3.006 1.265 1.075.008 2.181-.634 2.076-1.582-.03-.451-.334-.916-.747-1.203-.407-.293-.939-.386-1.478-.32-1.09.141-2.097.891-2.709 1.857-1.269 1.942-1.11 4.833.563 6.585 1.652 1.772 4.369 2.466 6.773 1.825-2.358.797-5.208.277-7.058-1.549-1.883-1.816-2.252-4.942-.904-7.247.676-1.146 1.818-2.076 3.215-2.307.688-.11 1.472-.009 2.098.413.61.406 1.098 1.054 1.19 1.854.106.805-.33 1.623-.952 2.055-.616.444-1.328.637-2.032.669-1.466.045-2.733-.591-3.789-1.436-1.045-.865-1.827-2.004-2.32-3.258-.484-1.255-.654-2.595-.635-3.902.02-1.313.231-2.595.559-3.848.337-1.251.846-2.536 1.767-3.597.924-1.062 2.255-1.822 3.762-1.856a4.123 4.123 0 0 1 2.14.572c.627.36 1.138.815 1.605 1.28.924.937 1.793 2.11 2.022 3.6.246 1.507-.455 3.06-1.536 3.995-1.064.964-2.575 1.491-4.024 1.299-1.441-.159-2.724-.892-3.704-1.859-.983-.98-1.651-2.263-1.948-3.577-.314-1.32-.315-2.676-.112-3.978.194-1.308.646-2.552 1.194-3.739.573-1.18 1.336-2.248 2.177-3.239a17.055 17.055 0 0 1 6.306-4.389 18.22 18.22 0 0 1 7.514-1.374c1.276.049 2.57.232 3.8.674a8.255 8.255 0 0 1 3.249 2.124c1.786 1.901 2.707 4.413 3.013 6.902.319 2.508.084 5.014-.18 7.487zM68.271 40.807c.212-2.087 1.455-4.007 3.157-5.264 1.692-1.268 3.886-1.974 6.071-1.667 1.08.173 2.141.559 3.03 1.285.897.715 1.466 1.88 1.495 3.033.061 2.328-1.219 4.344-2.614 5.909-1.372 1.581-2.838 3.049-3.395 4.845-.538 1.754.004 3.798 1.219 5.191 1.196 1.445 3.146 2.016 4.962 1.592a5.823 5.823 0 0 0 2.465-1.197c.678-.588 1.272-1.368 1.459-2.161.105-.4.112-.811.009-1.102-.092-.278-.316-.486-.563-.536-.493-.146-1.366.408-1.779 1.116a2.47 2.47 0 0 0-.263.549c-.049.217-.138.425-.157.65-.093.439-.071.899-.037 1.352.113.907.462 1.799.99 2.563 1.058 1.538 2.906 2.463 4.734 2.1a5.548 5.548 0 0 0 2.519-1.14 5.363 5.363 0 0 0 1.707-2.184c.359-.825.505-1.899.147-2.524-.179-.301-.466-.453-.844-.439-.375.016-.786.206-1.078.489-.588.58-.765 1.599-.827 2.598-.068 1.029-.138 2.051.036 3.008.153.96.652 1.82 1.46 2.371.796.559 1.805.822 2.806.841 2.037.007 3.957-1 5.775-1.96-1.739 1.093-3.587 2.25-5.77 2.357-1.068.036-2.176-.178-3.122-.766-.96-.569-1.643-1.61-1.868-2.694-.244-1.087-.188-2.164-.159-3.204.051-1.033.121-2.251.998-3.22a2.7 2.7 0 0 1 1.681-.818c.66-.082 1.448.273 1.803.878.371.594.428 1.236.403 1.819a5.778 5.778 0 0 1-.368 1.687c-.823 2.154-2.796 3.767-5.073 4.177-1.134.228-2.362.078-3.432-.397-1.078-.469-1.963-1.27-2.642-2.191-1.304-1.856-1.856-4.416-.639-6.656a4.25 4.25 0 0 1 1.289-1.345c.527-.342 1.24-.626 2.03-.451.779.157 1.396.771 1.641 1.469.241.694.196 1.368.046 1.969-.727 2.415-2.847 3.914-5.079 4.39a6.683 6.683 0 0 1-3.44-.161 6.344 6.344 0 0 1-2.852-1.941c-1.479-1.747-2.124-4.217-1.422-6.467.724-2.232 2.409-3.736 3.774-5.223.703-.752 1.32-1.502 1.773-2.378.46-.859.764-1.806.755-2.735a3.193 3.193 0 0 0-1.099-2.426c-.703-.624-1.649-1.007-2.607-1.204-3.901-.759-8.317 2.076-9.105 6.213z" fill="#703C1E"/><path d="M63.309 20.846c5.861 13.746-10.459 20.94-10.548 20.979 4.57.288 9.53 2.072 14.127 6.804 0 0 7.416-7.026 16.818-6.568 0 0-12.23-4.831-12.23-18.355 0-13.524-6.81-23.407-6.81-23.407-11.492 0-13.163 8.583-13.163 8.583s5.929-1.82 11.806 11.964z" fill="#703C1E"/></svg>