<svg xmlns="http://www.w3.org/2000/svg" xmlns:xlink="http://www.w3.org/1999/xlink">
<style>
:root&gt;
svg {
  display: none
}
:root&gt;
svg:target {
  display: block
}
</style>

<svg id="check" viewBox="0 0 16 16" fill="none" xmlns="http://www.w3.org/2000/svg">
<path d="M13.3337 4L6.00033 11.3333L2.66699 8" stroke="white" stroke-width="1.1" stroke-linecap="round" stroke-linejoin="round"/>
</svg>

<svg id="pencil" viewBox="0 0 24 24" xmlns="http://www.w3.org/2000/svg">
<path d="M1.6496 23.0401C1.55048 23.041 1.45232 23.0206 1.36181 22.9802C1.27129 22.9398 1.19055 22.8803 1.12507 22.8059C1.0596 22.7315 1.01092 22.6438 0.982371 22.5489C0.953817 22.454 0.946052 22.354 0.959603 22.2558L1.6496 17.3384C1.67034 17.1884 1.73985 17.0494 1.8474 16.9428L16.7583 2.18829C18.3867 0.578289 20.2405 0.559889 21.8413 2.14229C22.6371 2.92889 23.0396 3.76609 23.0396 4.64009C23.0396 5.51409 22.621 6.38349 21.7953 7.19999C21.2203 7.76579 20.4383 8.54089 20.4383 8.54089L6.8821 21.9476C6.78441 22.0437 6.6603 22.1086 6.5256 22.1339L1.7761 23.0401C1.73401 23.0435 1.6917 23.0435 1.6496 23.0401ZM2.9813 17.7501L2.4638 21.4945L6.0633 20.8183L19.4677 7.55419L20.8247 6.21099C21.379 5.66359 21.6596 5.13229 21.6596 4.64009C21.6596 4.14789 21.3951 3.64879 20.8707 3.13129C19.7989 2.07099 18.8306 2.08479 17.7289 3.17499L2.9813 17.7501Z" fill="currentColor"/>
</svg>

<svg id="plus" viewBox="0 0 24 25" xmlns="http://www.w3.org/2000/svg">
<path d="M17.4379 12.5955H5.56211C5.41303 12.5955 5.27004 12.5362 5.16462 12.4308C5.05921 12.3254 5 12.1824 5 12.0334C5 11.8843 5.05921 11.7413 5.16462 11.6359C5.27004 11.5305 5.41303 11.4713 5.56211 11.4713H17.4379C17.587 11.4713 17.73 11.5305 17.8354 11.6359C17.9408 11.7413 18 11.8843 18 12.0334C18 12.1824 17.9408 12.3254 17.8354 12.4308C17.73 12.5362 17.587 12.5955 17.4379 12.5955Z" fill="currentColor"/>
<path d="M11.4996 18.5691C11.3505 18.5691 11.2075 18.5099 11.1021 18.4045C10.9967 18.299 10.9375 18.1561 10.9375 18.007V6.06211C10.9375 5.91303 10.9967 5.77007 11.1021 5.66465C11.2075 5.55924 11.3505 5.5 11.4996 5.5C11.6487 5.5 11.7916 5.55924 11.8971 5.66465C12.0025 5.77007 12.0617 5.91303 12.0617 6.06211V18.007C12.0617 18.1561 12.0025 18.299 11.8971 18.4045C11.7916 18.5099 11.6487 18.5691 11.4996 18.5691Z" fill="currentColor"/>
</svg>

<svg id="minus" width="24" height="25" viewBox="0 0 24 25" xmlns="http://www.w3.org/2000/svg">
<path d="M17.4379 12.6242H5.56211C5.41303 12.6242 5.27004 12.565 5.16462 12.4596C5.05921 12.3541 5 12.2112 5 12.0621C5 11.913 5.05921 11.77 5.16462 11.6646C5.27004 11.5592 5.41303 11.5 5.56211 11.5H17.4379C17.587 11.5 17.73 11.5592 17.8354 11.6646C17.9408 11.77 18 11.913 18 12.0621C18 12.2112 17.9408 12.3541 17.8354 12.4596C17.73 12.565 17.587 12.6242 17.4379 12.6242Z" fill="currentColor"/>
</svg>

<svg id="arrow" viewBox="0 0 14 8" fill="none" xmlns="http://www.w3.org/2000/svg">
<path d="M1 0.999999L7 6.983L13 1" stroke="currentColor" stroke-width="1.2" stroke-linecap="round" stroke-linejoin="round"/>
</svg>

<svg id="cross" viewBox="0 0 20 20" xmlns="http://www.w3.org/2000/svg">
<path d="M18.8182 19.9999C18.5035 19.9999 18.2015 19.8766 17.9777 19.6565L0.343507 2.00451C0.234125 1.89501 0.147498 1.76516 0.0885525 1.62235C0.0296065 1.47953 -0.000459227 1.32658 5.3017e-06 1.17219C0.00046983 1.0178 0.0314961 0.86498 0.0913005 0.722518C0.151105 0.580056 0.238475 0.450721 0.348515 0.341877C0.458554 0.233033 0.589104 0.146833 0.732626 0.0881773C0.876148 0.0295215 1.02986 -0.00045699 1.18501 5.26543e-06C1.34017 0.000467521 1.49368 0.0313411 1.63685 0.0908511C1.78001 0.150361 1.91005 0.237362 2.01943 0.34686L19.6536 17.9988C19.7634 18.1079 19.8505 18.2375 19.91 18.3801C19.9694 18.5228 20 18.6757 20 18.8301C20 18.9845 19.9694 19.1375 19.91 19.2801C19.8505 19.4227 19.7634 19.5523 19.6536 19.6614C19.544 19.7702 19.4136 19.8563 19.2701 19.9144C19.1267 19.9725 18.973 20.0016 18.8182 19.9999Z" fill="currentColor"/>
<path d="M1.17682 20C1.02279 20.0009 0.87009 19.9715 0.727552 19.9134C0.585014 19.8553 0.45551 19.7697 0.346433 19.6614C0.236619 19.5523 0.149453 19.4228 0.0900128 19.2801C0.0305725 19.1375 0 18.9846 0 18.8301C0 18.6757 0.0305725 18.5228 0.0900128 18.3802C0.149453 18.2375 0.236619 18.1079 0.346433 17.9988L17.9806 0.346861C18.2015 0.125719 18.5016 0.000938817 18.815 5.27607e-06C19.1283 -0.000928265 19.4292 0.122057 19.6515 0.341878C19.8737 0.561699 19.9991 0.860384 20 1.17219C20.0009 1.484 19.8774 1.78337 19.6565 2.00451L2.02229 19.6565C1.91119 19.7665 1.77927 19.8535 1.63415 19.9125C1.48904 19.9714 1.33356 20.0012 1.17682 20Z" fill="currentColor"/>
</svg>

<svg id="info" viewBox="0 0 24 24" xmlns="http://www.w3.org/2000/svg">
<path d="M11.9999 22.56C9.91137 22.56 7.86971 21.9407 6.13312 20.7803C4.39654 19.62 3.04304 17.9707 2.24378 16.0411C1.44452 14.1115 1.23539 11.9883 1.64285 9.93985C2.05031 7.89141 3.05606 6.00979 4.5329 4.53295C6.00974 3.05611 7.89135 2.05037 9.93979 1.64291C11.9882 1.23545 14.1115 1.44457 16.0411 2.24383C17.9707 3.04309 19.6199 4.39659 20.7803 6.13318C21.9406 7.86976 22.5599 9.91143 22.5599 12C22.557 14.7998 21.4435 17.4841 19.4638 19.4638C17.484 21.4436 14.7997 22.5571 11.9999 22.56ZM11.9999 2.76C10.1724 2.76 8.38599 3.30192 6.86648 4.31722C5.34697 5.33252 4.16265 6.77561 3.4633 8.464C2.76395 10.1524 2.58096 12.0102 2.93749 13.8026C3.29402 15.595 4.17404 17.2414 5.46628 18.5337C6.75852 19.8259 8.40493 20.7059 10.1973 21.0625C11.9897 21.419 13.8475 21.236 15.5359 20.5366C17.2243 19.8373 18.6674 18.653 19.6827 17.1335C20.698 15.614 21.2399 13.8275 21.2399 12C21.2399 9.5494 20.2664 7.19917 18.5336 5.46633C16.8008 3.7335 14.4505 2.76 11.9999 2.76Z" fill="currentColor"/>
<path d="M11.9998 16.62C11.8248 16.62 11.6569 16.5505 11.5332 16.4267C11.4094 16.3029 11.3398 16.135 11.3398 15.96V12C11.3398 11.825 11.4094 11.6571 11.5332 11.5333C11.6569 11.4095 11.8248 11.34 11.9998 11.34C12.1749 11.34 12.3428 11.4095 12.4665 11.5333C12.5903 11.6571 12.6598 11.825 12.6598 12V15.96C12.6598 16.135 12.5903 16.3029 12.4665 16.4267C12.3428 16.5505 12.1749 16.62 11.9998 16.62Z" fill="currentColor"/>
<path d="M11.9998 8.7C11.9562 8.6999 11.9128 8.69548 11.87 8.6868C11.8278 8.6787 11.7865 8.66617 11.7468 8.6494C11.7067 8.63279 11.6684 8.61215 11.6324 8.5878C11.597 8.56377 11.5639 8.53653 11.5334 8.5064C11.4096 8.38275 11.34 8.21499 11.3398 8.04C11.3399 7.99641 11.3444 7.95293 11.353 7.9102C11.3611 7.86793 11.3737 7.82664 11.3904 7.787C11.4079 7.7473 11.4285 7.70905 11.452 7.6726C11.4761 7.63717 11.5033 7.60402 11.5334 7.5736C11.6598 7.45512 11.8266 7.38919 11.9998 7.38919C12.1731 7.38919 12.3398 7.45512 12.4662 7.5736C12.4964 7.60402 12.5236 7.63717 12.5476 7.6726C12.5712 7.70905 12.5918 7.7473 12.6092 7.787C12.625 7.82699 12.6375 7.86819 12.6466 7.9102C12.6553 7.95293 12.6597 7.99641 12.6598 8.04C12.6597 8.21499 12.5901 8.38275 12.4662 8.5064C12.4355 8.53707 12.4016 8.56436 12.365 8.5878C12.3301 8.61258 12.2925 8.63325 12.2528 8.6494C12.2132 8.66617 12.1719 8.6787 12.1296 8.6868C12.0869 8.69548 12.0434 8.6999 11.9998 8.7Z" fill="currentColor"/>
</svg>

<svg id="user" viewBox="0 0 18 20" xmlns="http://www.w3.org/2000/svg">
<path d="M16.988 14.486C16.7259 13.3766 16.2263 12.3371 15.5237 11.4394C14.821 10.5417 13.932 9.80698 12.918 9.28603C13.8023 8.27649 14.2768 6.97251 14.2479 5.63073C14.219 4.28896 13.689 3.00658 12.762 2.03602C12.2805 1.5293 11.7028 1.12363 11.0627 0.842725C10.4226 0.561823 9.73295 0.411325 9.03402 0.400024H8.94002C7.91177 0.412635 6.90883 0.720657 6.05075 1.28737C5.19268 1.85409 4.51566 2.6556 4.1004 3.59636C3.68515 4.53711 3.54917 5.57744 3.70867 6.59332C3.86817 7.6092 4.31644 8.5578 5.00002 9.32603C4.01396 9.84594 3.14926 10.5689 2.4629 11.4473C1.77654 12.3257 1.2841 13.3395 1.01802 14.422C0.882326 14.8857 0.859079 15.375 0.950206 15.8494C1.04133 16.3238 1.24421 16.7697 1.54202 17.15C3.23802 19.322 7.57202 19.572 8.86002 19.6H9.18002C13.146 19.6 15.564 18.33 16.44 17.228C16.7422 16.8472 16.9495 16.3999 17.0448 15.9231C17.1401 15.4464 17.1206 14.9538 16.988 14.486ZM8.94202 1.60002H9.01402C9.55399 1.60869 10.0868 1.72494 10.5813 1.94197C11.0758 2.159 11.5221 2.47247 11.894 2.86402C12.4584 3.45435 12.8366 4.19767 12.9815 5.0014C13.1265 5.80512 13.0317 6.63373 12.7092 7.38401C12.3866 8.13429 11.8504 8.77309 11.1674 9.22083C10.4844 9.66857 9.6847 9.90547 8.86802 9.90202C8.32775 9.8934 7.79461 9.77718 7.29977 9.56015C6.80493 9.34312 6.35832 9.02964 5.98602 8.63802C5.42569 8.05201 5.04873 7.3151 4.90143 6.5178C4.75414 5.72051 4.84292 4.89755 5.15689 4.15002C5.47086 3.40249 5.99633 2.76294 6.66876 2.30993C7.34119 1.85692 8.1313 1.61018 8.94202 1.60002ZM15.5 16.482C14.414 17.85 11.3 18.434 8.88202 18.398C6.48202 18.364 3.54002 17.746 2.49802 16.412C2.31293 16.1767 2.18811 15.8998 2.13444 15.6052C2.08076 15.3107 2.09984 15.0075 2.19002 14.722C2.42858 13.7266 2.89359 12.7996 3.54885 12.0133C4.20412 11.2269 5.03197 10.6023 5.96802 10.188C6.81709 10.7681 7.81786 11.0859 8.84602 11.102H8.94002C10.0128 11.102 11.0598 10.7733 11.94 10.16C12.9037 10.5721 13.7571 11.2046 14.4317 12.0067C15.1063 12.8088 15.5832 13.758 15.824 14.778C15.913 15.0669 15.9301 15.3733 15.8736 15.6703C15.8171 15.9673 15.6889 16.2459 15.5 16.482Z" fill="currentColor"/>
</svg>

<svg id="cart" viewBox="0 0 25 24" xmlns="http://www.w3.org/2000/svg">
<path d="M10.3268 19.9C9.8719 19.9071 9.42513 19.7788 9.04331 19.5314C8.6615 19.284 8.36188 18.9286 8.18254 18.5105C8.00321 18.0923 7.95227 17.6303 8.03619 17.1831C8.12011 16.736 8.33511 16.3238 8.65385 15.9992C8.97259 15.6745 9.38067 15.4519 9.82621 15.3598C10.2718 15.2677 10.7346 15.3101 11.156 15.4817C11.5774 15.6533 11.9382 15.9463 12.1926 16.3235C12.4471 16.7007 12.5836 17.145 12.5848 17.6C12.5901 18.2043 12.3553 18.7861 11.9319 19.2174C11.5085 19.6486 10.9312 19.8942 10.3268 19.9ZM10.3268 16.512C10.1088 16.5048 9.89362 16.563 9.7089 16.679C9.52419 16.795 9.37838 16.9636 9.2902 17.1632C9.20202 17.3627 9.1755 17.584 9.21405 17.7987C9.25259 18.0134 9.35445 18.2117 9.50652 18.3681C9.65859 18.5245 9.85395 18.6318 10.0675 18.6763C10.281 18.7209 10.503 18.7006 10.7049 18.618C10.9068 18.5354 11.0794 18.3944 11.2006 18.213C11.3217 18.0316 11.3859 17.8181 11.3848 17.6C11.387 17.3159 11.2772 17.0425 11.0791 16.8388C10.8811 16.6352 10.6108 16.5178 10.3268 16.512Z" fill="currentColor"/>
<path d="M18.6589 19.9C18.2039 19.9071 17.7572 19.7788 17.3753 19.5314C16.9935 19.284 16.6939 18.9286 16.5146 18.5105C16.3352 18.0923 16.2843 17.6303 16.3682 17.1831C16.4521 16.736 16.6671 16.3238 16.9859 15.9992C17.3046 15.6745 17.7127 15.4519 18.1582 15.3598C18.6038 15.2677 19.0667 15.3101 19.4881 15.4817C19.9094 15.6533 20.2703 15.9463 20.5247 16.3235C20.7791 16.7007 20.9156 17.145 20.9169 17.6C20.9222 18.2043 20.6873 18.7861 20.2639 19.2174C19.8405 19.6486 19.2632 19.8942 18.6589 19.9ZM18.6589 16.512C18.4408 16.5048 18.2256 16.563 18.0409 16.679C17.8562 16.795 17.7104 16.9636 17.6222 17.1632C17.5341 17.3627 17.5075 17.584 17.5461 17.7987C17.5846 18.0134 17.6865 18.2117 17.8386 18.3681C17.9906 18.5245 18.186 18.6318 18.3995 18.6763C18.6131 18.7209 18.835 18.7006 19.0369 18.618C19.2389 18.5354 19.4115 18.3944 19.5326 18.213C19.6538 18.0316 19.7179 17.8181 19.7168 17.6C19.719 17.3159 19.6092 17.0425 19.4112 16.8388C19.2131 16.6352 18.9428 16.5178 18.6589 16.512Z" fill="currentColor"/>
<path d="M19.2827 14.514H9.04274C8.91538 14.5141 8.7913 14.4736 8.68846 14.3985C8.58563 14.3233 8.50938 14.2174 8.47074 14.096L5.99874 6.35405L5.98674 6.31405C5.92874 6.09805 5.56874 5.01205 4.15874 5.37805C4.00465 5.41783 3.84107 5.39477 3.70398 5.31394C3.56689 5.23312 3.46753 5.10114 3.42774 4.94705C3.38796 4.79296 3.41102 4.62938 3.49185 4.49229C3.57268 4.3552 3.70465 4.25583 3.85874 4.21605C4.67074 4.00605 5.38474 4.08005 5.97874 4.43605C6.54324 4.79799 6.95529 5.3545 7.13674 6.00005L9.47874 13.314H18.8587L21.1527 6.77205H8.79874C8.63961 6.77205 8.487 6.70884 8.37448 6.59631C8.26196 6.48379 8.19874 6.33118 8.19874 6.17205C8.19874 6.01292 8.26196 5.86031 8.37448 5.74779C8.487 5.63526 8.63961 5.57205 8.79874 5.57205H21.9987C22.0948 5.572 22.1894 5.59499 22.2747 5.6391C22.36 5.6832 22.4334 5.74713 22.4889 5.82551C22.5443 5.90389 22.5802 5.99444 22.5934 6.08954C22.6066 6.18464 22.5968 6.28153 22.5647 6.37205L19.8487 14.1121C19.8077 14.2295 19.7312 14.3312 19.6298 14.4032C19.5284 14.4752 19.4071 14.514 19.2827 14.514Z" fill="currentColor"/>
</svg>

<svg id="burger" viewBox="0 0 22 13" xmlns="http://www.w3.org/2000/svg">
<path d="M21.5071 1.33773H0.492946C0.359335 1.32904 0.234055 1.26982 0.142502 1.17212C0.0509495 1.07442 0 0.945551 0 0.811657C0 0.677763 0.0509495 0.548869 0.142502 0.451166C0.234055 0.353464 0.359335 0.294276 0.492946 0.285583H21.5071C21.6407 0.294276 21.7659 0.353464 21.8575 0.451166C21.9491 0.548869 22 0.677763 22 0.811657C22 0.945551 21.9491 1.07442 21.8575 1.17212C21.7659 1.26982 21.6407 1.32904 21.5071 1.33773Z" fill="currentColor"/>
<path d="M21.5071 7.09432H0.492946C0.359335 7.08563 0.234055 7.02642 0.142502 6.92871C0.0509495 6.83101 0 6.70214 0 6.56825C0 6.43435 0.0509495 6.30546 0.142502 6.20776C0.234055 6.11006 0.359335 6.05087 0.492946 6.04218H21.5071C21.6407 6.05087 21.7659 6.11006 21.8575 6.20776C21.9491 6.30546 22 6.43435 22 6.56825C22 6.70214 21.9491 6.83101 21.8575 6.92871C21.7659 7.02642 21.6407 7.08563 21.5071 7.09432Z" fill="currentColor"/>
<path d="M21.5071 12.8512H0.492946C0.359335 12.8425 0.234055 12.7833 0.142502 12.6856C0.0509495 12.5879 0 12.459 0 12.3251C0 12.1913 0.0509495 12.0624 0.142502 11.9647C0.234055 11.867 0.359335 11.8078 0.492946 11.7991H21.5071C21.6407 11.8078 21.7659 11.867 21.8575 11.9647C21.9491 12.0624 22 12.1913 22 12.3251C22 12.459 21.9491 12.5879 21.8575 12.6856C21.7659 12.7833 21.6407 12.8425 21.5071 12.8512Z" fill="currentColor"/>
</svg>

<svg id="logo" viewBox="0 0 256 236" xmlns="http://www.w3.org/2000/svg" preserveAspectRatio="xMinYMin meet"><path d="M128.075 236.075l47.104-144.97H80.97l47.104 144.97z" fill="#E24329"/><path d="M128.075 236.074L80.97 91.104H14.956l113.119 144.97z" fill="#FC6D26"/><path d="M14.956 91.104L.642 135.16a9.752 9.752 0 0 0 3.542 10.903l123.891 90.012-113.12-144.97z" fill="#FCA326"/><path d="M14.956 91.105H80.97L52.601 3.79c-1.46-4.493-7.816-4.492-9.275 0l-28.37 87.315z" fill="#E24329"/><path d="M128.075 236.074l47.104-144.97h66.015l-113.12 144.97z" fill="#FC6D26"/><path d="M241.194 91.104l14.314 44.056a9.752 9.752 0 0 1-3.543 10.903l-123.89 90.012 113.119-144.97z" fill="#FCA326"/><path d="M241.194 91.105h-66.015l28.37-87.315c1.46-4.493 7.816-4.492 9.275 0l28.37 87.315z" fill="#E24329"/></svg>

<svg id="october" viewBox="0 0 89 14" xmlns="http://www.w3.org/2000/svg">
<path fill-rule="evenodd" clip-rule="evenodd" d="M42.2805 5.93136C41.9026 5.89025 41.5204 5.92397 41.1556 6.03059C40.7907 6.13721 40.4505 6.31464 40.1542 6.55276C39.858 6.79087 39.6115 7.08501 39.4289 7.41837C39.2464 7.75173 39.1312 8.11779 39.0901 8.49565C39.049 8.87351 39.0827 9.25576 39.1893 9.62058C39.296 9.98541 39.4734 10.3257 39.7115 10.6219C39.9496 10.9182 40.2438 11.1646 40.5771 11.3472C40.9105 11.5298 41.2765 11.6449 41.6544 11.686C42.0323 11.7271 42.4145 11.6934 42.7793 11.5868C43.1442 11.4802 43.4844 11.3027 43.7807 11.0646C44.0769 10.8265 44.3234 10.5324 44.506 10.199C44.6885 9.86565 44.8037 9.49959 44.8448 9.12173C44.8859 8.74388 44.8522 8.36162 44.7455 7.9968C44.6389 7.63197 44.4615 7.29172 44.2234 6.99547C43.9853 6.69921 43.6911 6.45276 43.3578 6.27018C43.0244 6.0876 42.6583 5.97247 42.2805 5.93136ZM40.5466 3.94701C41.1851 3.76043 41.854 3.70142 42.5153 3.77337C43.1765 3.84531 43.8171 4.04679 44.4005 4.3663C44.9839 4.68581 45.4986 5.1171 45.9153 5.63555C46.332 6.15399 46.6425 6.74943 46.8291 7.38788C47.0157 8.02632 47.0747 8.69527 47.0028 9.35652C46.9308 10.0178 46.7293 10.6584 46.4098 11.2418C46.0903 11.8251 45.659 12.3399 45.1406 12.7566C44.6221 13.1733 44.0267 13.4838 43.3883 13.6704C42.7498 13.857 42.0809 13.916 41.4196 13.844C40.7584 13.7721 40.1178 13.5706 39.5344 13.2511C38.951 12.9316 38.4363 12.5003 38.0196 11.9818C37.6029 11.4634 37.2924 10.8679 37.1058 10.2295C36.9192 9.59106 36.8602 8.92212 36.9321 8.26087C37.0041 7.59962 37.2055 6.95902 37.5251 6.37563C37.8446 5.79225 38.2759 5.27751 38.7943 4.86081C39.3127 4.44411 39.9082 4.1336 40.5466 3.94701Z" fill="white"/>
<path fill-rule="evenodd" clip-rule="evenodd" d="M20.9836 5.91438C20.4756 5.91438 19.9765 6.04812 19.5365 6.30215C19.0965 6.55618 18.7311 6.92155 18.4771 7.36154C18.223 7.80153 18.0893 8.30063 18.0893 8.80869C18.0893 9.31675 18.223 9.81586 18.4771 10.2558C18.7311 10.6958 19.0965 11.0612 19.5365 11.3152C19.9765 11.5693 20.4756 11.703 20.9836 11.703C21.4917 11.703 21.9908 11.5693 22.4308 11.3152C22.8708 11.0612 23.2361 10.6958 23.4902 10.2558L25.3701 11.3412C24.9255 12.1112 24.2861 12.7506 23.5161 13.1951C22.7462 13.6397 21.8727 13.8737 20.9836 13.8737C20.0945 13.8737 19.2211 13.6397 18.4511 13.1951C17.6811 12.7506 17.0417 12.1112 16.5972 11.3412C16.1526 10.5712 15.9186 9.69779 15.9186 8.80869C15.9186 7.91959 16.1526 7.04616 16.5972 6.27617C17.0417 5.50619 17.6811 4.86679 18.4511 4.42224C19.2211 3.97769 20.0945 3.74365 20.9836 3.74365V5.91438Z" fill="white"/>
<path fill-rule="evenodd" clip-rule="evenodd" d="M7.48788 2.33694C6.87552 2.25633 6.25328 2.29711 5.65669 2.45697C5.0601 2.61682 4.50083 2.89262 4.01082 3.26862C3.52082 3.64461 3.10967 4.11344 2.80085 4.64833C2.49203 5.18322 2.29159 5.7737 2.21097 6.38606C2.13035 6.99842 2.17113 7.62065 2.33099 8.21725C2.49085 8.81384 2.76665 9.37311 3.14264 9.86312C3.51864 10.3531 3.98746 10.7643 4.52236 11.0731C5.05725 11.3819 5.64773 11.5824 6.26008 11.663C6.87244 11.7436 7.49468 11.7028 8.09127 11.5429C8.68787 11.3831 9.24713 11.1073 9.73714 10.7313C10.2271 10.3553 10.6383 9.88647 10.9471 9.35158C11.2559 8.81669 11.4564 8.22621 11.537 7.61386C11.6176 7.0015 11.5768 6.37926 11.417 5.78267C11.2571 5.18607 10.9813 4.62681 10.6053 4.1368C10.2293 3.64679 9.7605 3.23564 9.22561 2.92682C8.69071 2.618 8.10023 2.41756 7.48788 2.33694ZM5.09486 0.360202C5.96681 0.126565 6.87624 0.0669582 7.77122 0.184785C8.6662 0.302611 9.52921 0.595564 10.311 1.04692C11.0927 1.49827 11.7779 2.09918 12.3275 2.81534C12.877 3.53151 13.2801 4.3489 13.5137 5.22084C13.7474 6.09279 13.807 7.00221 13.6892 7.89719C13.5713 8.79217 13.2784 9.65518 12.827 10.4369C12.3757 11.2187 11.7748 11.9039 11.0586 12.4535C10.3424 13.003 9.52504 13.4061 8.6531 13.6397C7.78115 13.8734 6.87173 13.933 5.97675 13.8151C5.08177 13.6973 4.21876 13.4044 3.43699 12.953C2.65523 12.5016 1.97002 11.9007 1.42049 11.1846C0.870954 10.4684 0.467862 9.65102 0.234225 8.77907C0.000588467 7.90713 -0.0590184 6.9977 0.0588082 6.10272C0.176635 5.20774 0.469587 4.34473 0.920939 3.56297C1.37229 2.7812 1.9732 2.09599 2.68937 1.54646C3.40553 0.99693 4.22292 0.593839 5.09486 0.360202Z" fill="white"/>
<path fill-rule="evenodd" clip-rule="evenodd" d="M64.961 6.40217C65.5449 6.01206 66.2506 5.8475 66.9468 5.93915C67.643 6.03081 68.2821 6.37242 68.7451 6.90035C68.8709 7.04383 68.9814 7.19841 69.0756 7.36156H64.0625C64.2828 6.97994 64.5891 6.65069 64.961 6.40217ZM63.7666 9.53239C63.8159 9.7232 63.8849 9.9097 63.9732 10.0888C64.2838 10.7186 64.8127 11.214 65.4614 11.4827C66.1101 11.7514 66.8344 11.7751 67.4994 11.5494C68.1643 11.3237 68.7245 10.864 69.0756 10.2558L70.9555 11.3412C70.341 12.4054 69.3607 13.2099 68.1971 13.6049C67.0335 13.9999 65.766 13.9584 64.6307 13.4882C63.4954 13.0179 62.5698 12.151 62.0263 11.0489C61.4828 9.94681 61.3585 8.68472 61.6766 7.49777C61.9946 6.31082 62.7333 5.27997 63.755 4.59728C64.7768 3.91458 66.0118 3.6266 67.2301 3.787C68.4484 3.94739 69.5669 4.54521 70.3771 5.46909C71.1873 6.39296 71.634 7.57988 71.634 8.8087H70.9106V8.80881H71.6341V9.53239H63.7666Z" fill="white"/>
<path fill-rule="evenodd" clip-rule="evenodd" d="M51.3741 0.125977H49.2034V8.79702C49.2034 8.80089 49.2034 8.80476 49.2034 8.80864C49.2034 11.606 51.4711 13.8737 54.2684 13.8737C57.0658 13.8737 59.3334 11.606 59.3334 8.80864C59.3334 6.01129 57.0658 3.7436 54.2684 3.7436C53.1923 3.7436 52.1945 4.0792 51.3741 4.65145V0.125977ZM51.3741 8.8089H51.3741V8.79983C51.3789 7.2054 52.6729 5.91433 54.2684 5.91433C55.8669 5.91433 57.1627 7.21015 57.1627 8.80864C57.1627 10.4071 55.8669 11.7029 54.2684 11.7029C52.67 11.7029 51.3742 10.4073 51.3741 8.8089Z" fill="white"/>
<path fill-rule="evenodd" clip-rule="evenodd" d="M77.4226 3.74365H75.2518V8.80869V13.8737H77.4226L77.4226 8.80869C77.4226 8.36474 77.5247 7.92674 77.721 7.52857C77.9174 7.1304 78.2027 6.78274 78.5549 6.51248C78.9071 6.24222 79.3168 6.05661 79.7522 5.97C80.1876 5.88339 80.6371 5.8981 81.066 6.01301L81.6278 3.91624C80.8774 3.71516 80.0907 3.68941 79.3287 3.84098C78.6434 3.97729 77.9946 4.25374 77.4226 4.65206V3.74365Z" fill="white"/>
<path fill-rule="evenodd" clip-rule="evenodd" d="M28.2195 0.125977H30.3903V3.7436H33.2847V5.91433H30.3903V8.80881H30.3903C30.3903 9.31687 30.5241 9.81598 30.7781 10.256C31.0321 10.696 31.3975 11.0613 31.8375 11.3154C32.2775 11.5694 32.7766 11.7031 33.2847 11.7031C33.7927 11.7031 34.2918 11.5694 34.7318 11.3154L35.8172 13.1953C35.0472 13.6398 34.1738 13.8738 33.2847 13.8738C32.3956 13.8738 31.5221 13.6398 30.7521 13.1953C29.9822 12.7507 29.3428 12.1113 28.8982 11.3413C28.4537 10.5714 28.2196 9.69797 28.2196 8.8089H28.2195V0.125977Z" fill="white"/>
<circle cx="87.1911" cy="12.0648" r="1.80894" fill="#EC6436"/>
</svg>
</svg>
